<?xml version="1.0" encoding="UTF-8" standalone="no"?>
<!DOCTYPE svg PUBLIC "-//W3C//DTD SVG 1.1//EN" "http://www.w3.org/Graphics/SVG/1.1/DTD/svg11.dtd">
<svg width="100%" height="100%" viewBox="0 0 1191 842" version="1.1" xmlns="http://www.w3.org/2000/svg" xmlns:xlink="http://www.w3.org/1999/xlink" xml:space="preserve" xmlns:serif="http://www.serif.com/" style="fill-rule:evenodd;clip-rule:evenodd;stroke-linecap:round;stroke-linejoin:round;stroke-miterlimit:1.5;">
    <g id="Title-Text" serif:id="Title Text" transform="matrix(0.690117,0,0,0.690117,44.9413,53.9728)">
        <g id="Engraved-Text" serif:id="Engraved Text">
            <g id="Title-Text1" serif:id="Title Text">
                <text x="177.623px" y="551.84px" style="font-family:'AeroMaticsBoldItalic', 'Aero Matics', sans-serif;font-weight:700;font-style:italic;font-size:65.916px;">Gloster Javelin FAW.9R</text>
                <g transform="matrix(65.9155,0,0,65.9155,1055.41,617.756)">
                </g>
                <text x="177.623px" y="617.756px" style="font-family:'AeroMaticsBoldItalic', 'Aero Matics', sans-serif;font-weight:700;font-style:italic;font-size:65.916px;">No.64 Squadron, RAF Tengah 1960</text>
            </g>
        </g>
    </g>
    <g id="cutting" transform="matrix(1.32018,0,0,1.32018,36.4164,-341.112)">
        <g id="outline" transform="matrix(0.750586,0,0,0.749946,0.373002,413.034)">
            <path d="M466,561.704C462.975,559.842 459.904,558.302 459.176,558.28C458.447,558.259 455.295,555.802 452.169,552.822C449.044,549.841 445.212,547.082 443.653,546.69C442.094,546.299 438.722,544.228 436.159,542.087C429.421,536.459 429.675,536.648 423.722,532.84C415.736,527.732 415.742,524.898 423.75,519.522C425.483,518.359 425.997,517.061 425.985,513.876C425.962,507.725 424.974,506.686 421.07,508.705C414.744,511.977 402.042,509.967 394.328,504.475C392.603,503.247 390.776,502.241 390.269,502.241C389.761,502.241 386.637,499.429 383.325,495.991C380.014,492.554 375.377,488.166 373.021,486.241C370.664,484.316 367.833,481.959 366.729,481.003C365.625,480.047 361.98,477.347 358.628,475.003C355.277,472.659 350.035,468.208 346.98,465.113C340.197,458.238 329.998,450.426 322.074,446.037C317.605,443.561 315.157,441.284 312.068,436.73C309.82,433.413 305.75,428.3 303.024,425.367C300.299,422.433 298.166,419.702 298.285,419.298C298.635,418.103 292.363,413.241 290.47,413.241C289.513,413.241 287.72,414.33 286.487,415.66C283.347,419.05 278.12,420.229 266.221,420.236L255.941,420.242L250.86,416.225C248.065,414.016 244.805,410.753 243.615,408.975C242.425,407.197 240.457,405.301 239.243,404.762C238.029,404.224 236.601,402.536 236.07,401.012C234.64,396.911 231.582,397.377 229.635,401.992C227.67,406.653 226.153,408.567 223.167,410.158C221.051,411.285 220.896,411.851 221.5,416.244C222.109,420.671 221.951,421.228 219.655,422.732C216.221,424.982 201.961,424.566 201.985,422.035C201.995,421.006 203.299,420.145 203.765,420.848C204.169,421.456 207.2,422.253 210.5,422.618C218.993,423.559 221.112,421.985 220.323,415.323C219.802,410.918 219.975,410.326 222.123,409.182C225.153,407.567 226.663,405.669 228.635,400.992C229.954,397.866 230.707,397.242 233.161,397.242C235.478,397.242 236.31,397.831 237.07,400.012C237.601,401.536 239.029,403.224 240.243,403.762C241.457,404.301 243.425,406.197 244.615,407.975C245.805,409.753 249.065,413.016 251.86,415.225L256.941,419.242L266.221,419.236C277.15,419.229 282.411,417.98 285.487,414.66C286.788,413.257 288.859,412.241 290.418,412.241C293.284,412.241 300,416.937 300,418.941C300,419.6 301.991,422.248 304.425,424.824C306.858,427.4 310.719,432.265 313.003,435.634C316.159,440.287 318.58,442.547 323.074,445.037C330.998,449.426 341.197,457.238 347.98,464.113C351.035,467.208 356.277,471.659 359.628,474.003C362.98,476.347 366.625,479.047 367.729,480.003C368.833,480.959 371.664,483.316 374.021,485.241C376.377,487.166 381.014,491.554 384.325,494.991C387.637,498.429 390.788,501.241 391.329,501.241C391.869,501.241 393.704,502.263 395.406,503.512C402.799,508.938 413.874,510.464 421.795,507.148C425.982,505.395 426.963,506.653 426.985,513.8C426.999,518.543 426.753,519.041 423.024,521.8C420.837,523.418 419.037,525.515 419.024,526.461C419.01,527.469 421.312,529.659 424.592,531.757C430.683,535.654 430.415,535.454 437.159,541.087C439.722,543.228 443.094,545.299 444.653,545.69C446.212,546.082 450.044,548.841 453.169,551.822C456.295,554.802 459.372,557.241 460.008,557.241C460.643,557.241 463.851,558.816 467.135,560.741C470.42,562.666 474.365,564.241 475.902,564.241C479.157,564.241 496.942,560.633 497.771,559.804C498.08,559.495 496.692,556.859 494.686,553.947C492.68,551.034 490.519,547.097 489.883,545.196C489.248,543.296 487.606,540.531 486.234,539.051C483.893,536.525 483.678,533.241 485.854,533.241C486.358,533.241 487.508,532.115 488.41,530.739C489.892,528.476 489.903,527.955 488.525,525.289C487.686,523.667 487,520.994 487,519.348C487,516.095 484.008,513.241 480.598,513.241C476.954,513.241 472,510.886 472,509.154C472,507.869 473.486,507.208 478.25,506.376C484.53,505.28 491.779,504.739 495.5,505.091C496.6,505.195 499.295,506.846 501.489,508.761C506.088,512.774 506.362,512.838 508.87,510.491C509.899,509.529 512.977,507.166 515.712,505.241C518.446,503.316 522.04,499.941 523.698,497.741C526.492,494.034 526.804,492.753 527.964,480.241C529,469.06 529.65,465.983 531.745,462.329C534.168,458.102 534.198,457.859 532.446,456.579C531.38,455.799 528.003,455.241 524.348,455.241C519.186,455.241 517.718,454.855 516.039,453.053C514.918,451.849 514,450.531 514,450.125C514,449.718 511.632,448.499 508.738,447.416C502.926,445.242 496,439.535 496,436.92C496,433.831 501.199,435.434 505.821,439.95C506.548,440.66 508.704,441.241 510.611,441.241C512.519,441.241 515.844,442.141 518,443.241C520.609,444.572 523.894,445.241 527.818,445.241L533.716,445.241L537.476,439.149C539.544,435.798 545.201,428.936 550.046,423.899C557.305,416.353 559.151,414.921 560.536,415.761C562.711,417.08 567,424.717 567,427.268C567,428.353 567.399,429.241 567.886,429.241C568.374,429.241 569.067,431.206 569.427,433.606C569.787,436.007 570.668,438.773 571.385,439.753C572.622,441.445 573.037,441.402 579.594,438.899C589.388,435.159 597.198,433.924 606.856,434.586L615.212,435.159L622.856,429.968C627.06,427.112 632.525,423.708 635,422.402C637.475,421.096 642.711,418.051 646.636,415.634C650.561,413.218 654.093,411.241 654.485,411.241C654.877,411.241 656.616,410.575 658.349,409.76C665.624,406.34 685.734,402.043 703,400.22C713.303,399.132 720.527,396.225 733.073,388.115C740.854,383.086 759.779,373.241 761.665,373.241C762.436,373.241 765.248,372.136 767.915,370.784C772.719,368.35 777.198,363.528 780.029,357.741C780.836,356.091 781.733,354.516 782.022,354.241C783.17,353.147 786.135,348.012 791.047,338.609C793.881,333.182 797.281,327.309 798.6,325.558C799.92,323.807 801,322.098 801,321.76C801,321.422 802.575,318.683 804.5,315.674C806.425,312.665 808,309.922 808,309.58C808,309.237 810.074,306.529 812.609,303.562C817.629,297.686 819.359,293.218 820.479,283.241C821.105,277.667 825.675,270.241 827.273,270.241C827.548,270.241 825.273,271.704 824.186,273.491C823.098,275.279 821.88,279.666 821.479,283.241C820.389,292.952 818.674,297.582 814.187,302.921C811.959,305.572 808.695,310.441 806.934,313.741C802.138,322.73 801.68,323.518 799.367,326.755C798.194,328.398 794.985,334.016 792.236,339.241C785.308,352.408 783.625,355.228 782.691,355.235C782.246,355.238 782.129,355.64 782.43,356.128C782.731,356.616 782.308,357.571 781.489,358.251C780.67,358.93 780,359.929 780,360.47C780,364.234 767.404,374.241 762.665,374.241C760.91,374.241 740.88,384.554 735.5,388.227C722.731,396.946 713.591,400.463 700.5,401.695C687.191,402.947 666.073,407.599 659.349,410.76C657.616,411.575 655.864,412.241 655.457,412.241C655.049,412.241 651.968,413.964 648.608,416.07C645.249,418.176 640.025,421.213 637,422.82C633.975,424.427 627.877,428.254 623.448,431.326L615.397,436.911L609.156,435.879C601.003,434.53 590.119,436.135 579.583,440.238C573.385,442.652 571.487,443.041 570.837,442.031C569.741,440.328 568.013,434.199 568.006,431.991C568.003,431.029 567.55,430.241 567,430.241C566.45,430.241 566,429.355 566,428.272C566,426.216 562.729,419.686 560.574,417.44C559.56,416.383 557.711,417.835 550.747,425.153C546.028,430.111 540.491,436.884 538.442,440.205C534.911,445.925 534.501,446.249 530.608,446.392C523.787,446.643 520.732,446.145 516.816,444.147C514.761,443.099 511.519,442.241 509.611,442.241C507.704,442.241 505.548,441.649 504.821,440.925C502.392,438.505 497.945,435.963 497.288,436.62C496.07,437.838 504.464,444.443 509.738,446.416C512.632,447.499 515,448.718 515,449.125C515,449.531 515.918,450.849 517.039,452.053C518.73,453.868 520.18,454.241 525.539,454.241C530.652,454.241 532.414,454.656 533.987,456.228C535.969,458.21 535.967,458.225 533.127,462.703C530.905,466.206 530.13,468.896 529.595,474.966C527.824,495.056 527.92,494.584 524.741,498.741C523.059,500.941 519.436,504.316 516.689,506.241C513.942,508.166 510.72,510.732 509.528,511.942C507.569,513.932 507.111,514.012 504.727,512.775C503.278,512.023 500.839,510.245 499.306,508.825C496.457,506.183 495.463,505.941 488.5,506.192C483.144,506.385 473,508.335 473,509.171C473,510.057 479.118,512.241 481.598,512.241C485.086,512.241 487.997,515.093 488.035,518.548C488.055,520.304 488.714,522.866 489.5,524.241C491.62,527.95 491.321,529.767 488.05,533.037L485.1,535.987L487.498,538.24C488.817,539.479 490.178,541.774 490.522,543.34C490.866,544.907 492.913,548.788 495.071,551.965C499.559,558.571 499.978,560.998 496.75,561.676C495.513,561.936 491.261,562.845 487.303,563.695C476.451,566.026 472.41,565.649 466,561.704ZM190.639,519.547C190.257,519.165 188.719,518.731 187.222,518.582C185.725,518.433 182.36,517.567 179.745,516.656C175.932,515.329 174.162,515.211 170.815,516.06C162.958,518.055 160.02,513.054 165.175,506.462C170.983,499.034 170.888,499.111 172.948,500.214C174.004,500.779 175.804,501.241 176.948,501.241C178.091,501.241 179.884,501.777 180.932,502.431C185.328,505.177 187.199,498.588 183.3,494.09C180.365,490.704 175.679,490.902 168.624,494.711C165.028,496.653 161.255,498.241 160.239,498.241C158.546,498.241 156.55,496.431 150.15,489.092L147.84,486.442L152.933,481.403C156.039,478.329 158.27,475.14 158.653,473.229C159.008,471.453 160.503,469.19 162.102,468.007C164.172,466.477 165.103,464.74 165.589,461.496C166.134,457.864 166.95,456.566 170.142,454.254C172.624,452.456 174.775,451.631 176.088,451.975C178.356,452.568 181.572,457.194 184.792,464.491C185.998,467.225 187.548,469.241 188.444,469.241C190.36,469.241 190.379,467.529 188.5,464.241C187.714,462.866 187.055,459.434 187.035,456.614C186.995,450.704 185.794,449.261 179.621,447.698C176.497,446.906 175.421,446.106 175.173,444.39C174.681,440.987 177.478,437.53 182.765,435.004L187.5,432.741L187.543,426.464C187.579,421.17 187.344,420.293 186.043,420.866C181.544,422.849 178.029,422.433 174.278,419.474C172.2,417.835 169.094,416.189 167.375,415.816C164.47,415.185 164.066,415.452 161.625,419.618C159.972,422.439 159,425.583 159,428.11C159,430.318 158.526,432.417 157.946,432.775C157.253,433.203 157.486,434.334 158.625,436.072C160.711,439.256 160.851,446.471 158.976,454.202C158.007,458.199 156.627,460.666 153.826,463.412C151.722,465.475 150,468.045 150,469.125C150,472.206 144.221,477.434 141.64,476.687C137.561,475.506 135.84,472.326 136.291,466.805C136.518,464.02 136.272,460.78 135.743,459.604C134.631,457.133 138.102,449.283 143.062,443.05C144.678,441.02 146,438.164 146,436.704C146,432.026 143.057,423.734 140.169,420.275L137.367,416.918L135.115,420.08C133.071,422.95 132.374,423.241 127.547,423.241C121.672,423.241 120.424,424.32 118.1,431.411C116.165,437.318 115.744,437.427 101.395,435.748C94.31,434.92 87.985,434.241 87.341,434.241C86.697,434.241 83.139,429.486 79.434,423.675L72.698,413.108L73.935,404.792C75.02,397.496 74.974,396.093 73.56,393.358C71.911,390.169 71.417,389.972 64.5,389.762C50.089,389.323 51.003,389.587 46.27,384.491C37.575,375.128 30.365,364.063 27.629,355.878C24.051,345.174 24.213,342.088 28.769,334.237C32.043,328.596 32.964,327.7 35.769,327.428C39.529,327.063 39.397,327.344 37.55,323.641C35.465,319.464 36.877,314.569 42.398,306.832C45.729,302.164 47.205,299.006 47.673,295.546C48.237,291.38 49.122,289.943 54.331,284.741L60.338,278.741L54.838,284.741C50.251,289.747 49.228,291.547 48.673,295.602C48.237,298.788 46.845,302.061 44.633,305.102C42.777,307.654 40.526,311.182 39.629,312.942C37.819,316.498 37.452,322.785 39,323.741C39.55,324.081 40,325.204 40,326.237C40,327.622 39.152,328.197 36.769,328.428C33.964,328.7 33.043,329.596 29.769,335.237C27.696,338.809 26,342.921 26,344.373C26,345.826 27.183,350.553 28.629,354.878C31.365,363.063 38.575,374.128 47.27,383.491C51.29,387.819 52.118,388.258 56.591,388.425C59.291,388.525 62.625,388.517 64,388.406C69.824,387.938 73.035,389.247 74.717,392.775C76.154,395.787 76.202,397.184 75.113,404.294L73.875,412.385L80.522,422.813C84.53,429.1 87.831,433.255 88.835,433.275C89.751,433.294 95.675,433.923 102,434.674C109.55,435.57 113.912,435.702 114.699,435.06C115.358,434.522 116.439,432.43 117.1,430.411C119.424,423.32 120.672,422.241 126.547,422.241C131.313,422.241 132.085,421.931 134,419.241C135.175,417.591 136.758,416.241 137.517,416.241C139.624,416.241 143.827,422.354 145.491,427.838C147.826,435.535 147.452,439.789 144.067,444.05C139.132,450.261 135.992,457.357 137.188,459.593C137.76,460.661 137.946,463.589 137.606,466.153C136.905,471.44 138.786,475.241 142.104,475.241C144.565,475.241 149,470.62 149,468.056C149,467.014 150.722,464.475 152.826,462.412C156.552,458.76 157.252,456.98 159.67,445.01C160.018,443.285 159.472,440.84 158.187,438.376C156.338,434.828 156.253,433.824 157.254,427.357C157.86,423.443 158.714,420.241 159.152,420.241C159.59,420.241 160.673,418.84 161.559,417.127C163.069,414.207 163.424,414.053 167.236,414.663C169.487,415.023 173.037,416.686 175.185,418.388C178.069,420.672 179.7,421.305 181.533,420.852C182.89,420.516 185.08,419.973 186.399,419.644C188.778,419.052 188.797,419.111 188.649,426.394L188.5,433.741L183.765,436.004C178.789,438.381 175.415,442.275 176.31,444.607C176.602,445.367 178.564,446.309 180.67,446.7C186.409,447.765 187.994,449.69 188.035,455.646C188.055,458.449 188.714,461.866 189.5,463.241C191.628,466.964 191.413,470.241 189.039,470.241C186.511,470.241 185.562,469.097 181.647,461.324C177.515,453.118 176.212,452.274 171.556,454.781C168.187,456.595 166.024,460.599 166.006,465.056C166.003,465.779 164.708,467.458 163.129,468.786C161.55,470.115 159.975,472.614 159.63,474.341C159.252,476.232 157.183,479.222 154.423,481.867L149.843,486.255L152.811,489.998C154.444,492.057 156.75,494.618 157.937,495.689C160.087,497.63 160.116,497.624 167.401,493.826C173.695,490.545 175.271,490.111 178.765,490.702C180.996,491.079 183.487,492.142 184.3,493.064C186.471,495.528 187.415,501.036 185.966,502.782C184.627,504.395 180.931,504.728 179.45,503.369C178.927,502.89 176.7,502.252 174.5,501.953C170.682,501.433 170.35,501.613 167.193,505.919C165.286,508.52 164.016,511.342 164.193,512.585C164.473,514.555 165.016,514.717 170.458,514.464C175.77,514.216 179.825,514.989 190.571,518.296C194.763,519.586 197.561,519.482 198.764,517.991C199.323,517.3 199.619,513.26 199.428,508.944C199.028,499.946 199.81,499.035 205.804,501.517C217.726,506.455 220.328,507.241 224.732,507.241C229.046,507.241 229.998,506.819 233.179,503.491C238.838,497.571 239.589,495.499 237.211,492.366C236.021,490.798 234.47,489.878 233.359,490.082C224.759,491.656 224.474,491.594 218.887,486.897C206.666,476.625 204.016,473.804 204.008,471.059C203.993,465.952 211.37,466.097 212.496,471.225C213.246,474.638 220.507,479.722 226.096,480.747C230.186,481.497 232.55,479.831 234.228,475.016C234.832,473.285 236.673,471.428 238.927,470.278C240.966,469.238 243.234,467.664 243.968,466.78C246.12,464.186 243.53,460.61 238.177,458.786C232.159,456.735 231.517,456.812 230.182,459.741C229.149,462.008 228.477,462.241 222.975,462.241L216.907,462.241L217.359,457.073C217.736,452.778 217.38,451.214 215.254,447.823C211.366,441.619 208.666,439.568 203.335,438.77C200.676,438.371 198.169,437.527 197.765,436.893C197.361,436.26 197.024,432.915 197.015,429.46C197.003,424.382 197.335,423.055 198.75,422.533C199.713,422.178 200.831,421.404 201.235,420.814C201.647,420.212 204.076,420.591 204.008,421.877C203.985,422.322 201.495,424.243 200.284,424.035C198.913,423.8 198.501,424.64 198.233,428.219C197.66,435.873 198.324,436.961 204.054,437.749C207.096,438.167 210.03,439.302 211.406,440.593C215.323,444.268 219.221,451.306 218.738,453.833C218.492,455.119 218.788,456.356 219.395,456.581C220.167,456.868 220.124,457.39 219.25,458.316C217.076,460.621 217.859,461.161 223.119,460.984C227.359,460.842 228.414,460.427 229.259,458.573C230.634,455.554 232.591,455.33 238.439,457.524C243.852,459.555 245.92,461.585 245.968,464.919C246.001,467.15 242.362,470.674 238.886,471.777C237.815,472.118 236.01,474.369 234.877,476.781C233.743,479.192 231.918,481.45 230.821,481.798C225.172,483.591 212.633,477.402 211.505,472.263C210.836,469.219 208.946,467.941 206.5,468.88C202.724,470.329 205.378,473.701 219.888,485.898C224.537,489.806 225.704,490.34 228.388,489.786C234.818,488.461 236.205,488.689 238.253,491.404C241.039,495.099 239.938,498.591 234.177,504.34C229.538,508.969 229.456,509.002 224,508.505C218.987,508.049 214.422,506.626 205.181,502.64C203.356,501.852 201.489,501.439 201.032,501.722C200.575,502.004 200.392,505.665 200.625,509.856C200.895,514.719 200.634,517.978 199.902,518.86C198.723,520.28 191.879,520.788 190.639,519.547L190.639,519.547ZM62.5,277.241C63.495,276.141 66.826,274.472 67.101,274.472C67.376,274.472 64.495,276.141 63.5,277.241C62.505,278.341 60.613,278.741 60.338,278.741C60.063,278.741 61.505,278.341 62.5,277.241ZM66.818,273.741C69.572,268.509 69.96,265.225 68.246,261.631C66.75,258.493 66.726,257.823 68.033,255.521C70.68,250.857 74.612,248.742 80.662,248.73C84.738,248.722 86.509,248.266 87.449,246.98C88.148,246.024 89.647,245.241 90.778,245.241C94.084,245.241 96.394,244.103 94.928,243.197C94.246,242.776 91.621,243.058 89.094,243.825C81.565,246.111 81.5,246.067 81.5,238.737C81.5,232.781 81.817,231.807 85.267,227.164C87.339,224.376 89.869,220.44 90.888,218.418C93.82,212.604 98.153,196.666 98.497,190.432C98.67,187.302 98.884,184.741 98.973,184.741C99.062,184.741 99.334,183.208 99.576,181.333C99.819,179.459 100.519,177.321 101.131,176.583C101.744,175.845 101.875,175.241 101.422,175.241C100.97,175.241 101.079,174.763 101.663,174.178C102.248,173.593 104.881,172.806 107.514,172.428C112.1,171.77 112.438,171.493 115.567,165.842C117.364,162.598 119.137,158.323 119.507,156.342C119.878,154.362 121,150.941 122.001,148.741C123.001,146.541 124.397,141.948 125.101,138.533C126.553,131.503 126.977,131.185 138,128.845C148.521,126.613 161.151,120.705 166.914,115.322C168.728,113.627 170.559,112.241 170.984,112.241C171.408,112.241 174.398,109.619 177.628,106.415C188.1,96.025 202.713,85.602 217,78.334C221.675,75.955 225.928,73.611 226.45,73.125C228.266,71.435 231.654,72.226 232.946,74.641C234.101,76.799 235.005,77.075 241.937,77.391C250.606,77.785 250.118,77.462 257.774,87.877C260.66,91.802 263.659,95.543 264.439,96.19C265.328,96.929 265.859,99.302 265.863,102.555C265.871,110.44 270.062,127.241 272.021,127.241C273.989,127.241 273.998,124.861 272.054,117.935C269.568,109.076 269.383,102.002 271.578,99.806C274.657,96.727 276.903,96.307 290.943,96.183L305.141,96.059L312.321,91.96C316.269,89.707 321.3,86.438 323.5,84.698C325.7,82.957 330.875,79.212 335,76.376C343.571,70.483 353.793,62.985 356,60.971C356.825,60.219 360.425,57.395 364,54.695C367.575,51.995 375,46.156 380.5,41.718C393.824,30.968 400.339,26.983 405.896,26.183C408.428,25.818 415.9,24.595 422.5,23.464C446.007,19.436 448.6,19.636 452.033,25.741C453.149,27.727 454.359,28.633 455.61,28.421C456.649,28.244 458.751,27.854 460.281,27.553C464.613,26.7 480.881,30.223 487.221,33.386C490.368,34.957 494.253,36.241 495.855,36.241C497.636,36.241 501.241,37.916 505.134,40.55C508.635,42.919 513.638,45.657 516.252,46.633C519.944,48.013 521.128,49.003 521.56,51.075C521.865,52.541 522.539,55.625 523.056,57.928C524.184,62.948 535.974,84.447 541.215,91.043C548.582,100.312 548.297,99.65 546.517,103.397C543.579,109.58 541.72,112.72 538.747,116.517C534.139,122.404 528.07,134.795 528.671,137.092C529.428,139.984 532.81,142.831 534.035,141.607C534.578,141.064 535.861,137.595 536.886,133.898C539.14,125.767 540.792,123.783 546.504,122.345C554.1,120.432 560.267,120.933 564.503,123.808C569.247,127.027 576,133.994 576,135.668C576,136.363 576.905,137.751 578.012,138.752C579.772,140.345 580.616,140.434 584.762,139.465C589.171,138.434 589.901,138.563 595.264,141.327C598.434,142.961 603.384,144.74 606.264,145.279C613.536,146.642 615.773,148.675 618.864,156.732C620.531,161.078 622.186,163.846 623.237,164.049C625.034,164.395 625.431,163.304 626.49,155.101C627.008,151.091 627.872,149.714 632.849,144.967C639.488,138.634 647.452,134.241 652.295,134.241C654.357,134.241 657.408,135.401 660.184,137.24C664.212,139.908 665.057,140.117 667.855,139.142C669.641,138.519 671.014,137.332 671.032,136.394C671.116,132.018 676.424,128.886 682.288,129.752C685.673,130.252 687.443,129.87 691.303,127.808C693.945,126.396 696.703,125.241 697.433,125.241C698.162,125.241 701.851,126.83 705.63,128.772C709.408,130.714 716.503,133.186 721.395,134.265C726.287,135.344 731.687,137.128 733.395,138.23C745.924,146.316 753.128,147.913 763.289,144.855C766.911,143.765 773.443,143.538 792.635,143.837C820.185,144.267 819.972,144.216 824.752,151.448C827.301,155.304 827.484,156.263 827.273,164.673C827.001,175.534 825.742,177.241 818.003,177.241C810.917,177.241 798.303,181.266 791.75,185.617C786.493,189.108 786,189.749 786.005,193.089C786.008,195.098 786.823,198.08 787.816,199.715C789.618,202.682 789.643,202.688 798.061,202.385C802.703,202.219 808.654,201.386 811.286,200.535C816.864,198.732 823.277,199.277 826.053,201.79C827.117,202.752 830.051,203.662 832.726,203.858C844.147,204.695 849.56,207.622 853.394,215.036C855.456,219.023 855.416,220.433 853.159,223.357C850.519,226.776 849,233.936 849,242.962C849,251.49 848.11,253.602 842.982,257.254C838.944,260.13 839.233,259.342 844,254.479L848,250.398L848,242.263C848,232.945 849.491,225.902 852.263,222.121C854.096,219.621 854.107,219.348 852.486,216.215C848.886,209.253 844.135,206.384 834.397,205.292C829.978,204.796 826.163,203.794 825.128,202.857C822.336,200.331 817.605,199.875 811.812,201.575C808.89,202.432 802.527,203.335 797.671,203.582L788.842,204.03L786.925,200.886C785.763,198.98 785.006,195.909 785.004,193.089C785,188.532 785.119,188.357 790.75,184.617C797.303,180.266 809.917,176.241 817.003,176.241C824.525,176.241 825.97,174.434 826.256,164.663C826.471,157.319 826.243,156.208 823.748,152.437C819.056,145.347 819.183,145.378 792.687,144.9C774.034,144.563 767.874,144.777 764.194,145.889C755.486,148.52 749.271,148.127 742,144.488C738.425,142.698 734.07,140.314 732.323,139.188C730.575,138.063 725.625,136.435 721.323,135.57C717.02,134.706 709.863,132.225 705.418,130.059L697.336,126.119L692.418,128.761C688.521,130.854 686.567,131.302 683.006,130.917C676.853,130.253 672.113,133.075 672.032,137.451C672.011,138.563 670.624,139.573 668.067,140.34C664.377,141.445 663.839,141.323 659.395,138.38C656.789,136.654 653.594,135.241 652.295,135.241C648.381,135.241 639.96,140.138 633.849,145.967C628.872,150.714 628.008,152.091 627.49,156.101C626.335,165.046 626.169,165.395 623.236,165.054C620.908,164.784 620.177,163.789 617.862,157.741C614.758,149.633 612.547,147.644 605.089,146.246C602.112,145.688 597.612,144.078 595.089,142.667C591.061,140.416 589.791,140.185 584.695,140.777C579.921,141.331 578.543,141.138 576.944,139.691C575.875,138.723 575,137.363 575,136.668C575,134.994 568.247,128.027 563.503,124.808C559.323,121.972 554.229,121.506 547.5,123.346C541.921,124.872 540.185,126.75 538.423,133.167C537.581,136.233 536.477,139.754 535.968,140.991C534.209,145.269 528.94,142.886 527.514,137.169C526.764,134.162 532.337,122.609 538.314,114.782C540.341,112.126 542,109.527 542,109.005C542,108.484 542.9,106.913 544,105.514C546.582,102.232 546.54,99.038 543.884,96.646C538.807,92.077 523.61,65.831 522.066,58.967C521.543,56.643 520.865,53.541 520.56,52.075C520.128,50.003 518.944,49.013 515.252,47.633C512.638,46.657 507.635,43.919 504.134,41.55C500.241,38.916 496.636,37.241 494.855,37.241C493.253,37.241 489.368,35.957 486.221,34.386C483.075,32.816 476.307,30.729 471.181,29.749C463.254,28.233 461.28,28.159 457.964,29.253C453.874,30.603 451,29.58 451,26.774C451,26.101 450.052,24.694 448.894,23.646C446.235,21.24 440.451,21.407 423.658,24.373C416.971,25.554 409.428,26.818 406.896,27.183C401.339,27.983 394.824,31.968 381.5,42.718C376,47.156 368.575,52.995 365,55.695C361.425,58.395 357.825,61.219 357,61.971C354.793,63.985 344.571,71.483 336,77.376C331.875,80.212 326.7,83.957 324.5,85.698C322.3,87.438 317.198,90.748 313.162,93.052L305.824,97.241L291.635,97.241C277.325,97.241 274.395,97.896 271.765,101.683C270.45,103.577 270.957,109.342 273.136,117.295C275.442,125.708 275.193,128.241 272.06,128.241C270.453,128.241 269.662,126.909 268.05,121.491C265.598,113.244 263.891,102.688 264.678,100.637C265.009,99.775 264.189,97.963 262.775,96.432C261.409,94.952 258.313,91.041 255.895,87.741C249.201,78.603 249.483,78.78 240.937,78.391C234.005,78.075 233.101,77.799 231.946,75.641C230.608,73.14 229.067,72.621 227.45,74.125C226.927,74.611 222.675,76.955 218,79.334C203.713,86.602 189.1,97.025 178.628,107.415C175.398,110.62 172.408,113.241 171.984,113.241C171.559,113.241 169.728,114.628 167.914,116.322C162.151,121.705 149.521,127.613 139,129.845C127.977,132.185 127.552,132.503 126.101,139.533C125.397,142.948 124.001,147.541 123.001,149.741C122,151.941 120.878,155.362 120.507,157.342C119.64,161.977 113.725,172.686 111.901,172.925C104.524,173.89 103.443,174.35 102.338,176.991C101.192,179.73 100.03,186.392 99.466,193.454C99.085,198.229 94.292,214.651 91.888,219.418C90.869,221.44 88.364,225.342 86.322,228.09C82.979,232.589 82.637,233.616 82.891,238.414C83.045,241.344 83.267,243.837 83.383,243.955C83.499,244.072 85.794,243.506 88.483,242.696C93.68,241.132 97,241.524 97,243.702C97,245.214 94.84,246.241 91.659,246.241C90.461,246.241 88.89,247.188 88.168,248.344C87.054,250.127 86.221,250.353 82.677,249.833C77.728,249.105 72.717,251.275 69.632,255.483C67.729,258.079 67.708,258.406 69.24,261.617C70.603,264.476 70.667,265.654 69.648,269.107C68.982,271.36 67.837,273.774 67.101,274.472C65.995,275.522 65.946,275.396 66.818,273.741ZM828,268.241C828.589,267.141 829.295,266.241 829.57,266.241C829.845,266.241 829.589,267.141 829,268.241C828.411,269.341 827.339,270.494 827.064,270.494C826.789,270.494 827.411,269.341 828,268.241ZM833,263.741C834.292,262.366 842.707,257.254 842.982,257.254C843.257,257.254 835.292,262.366 834,263.741C832.708,265.116 829.845,266.241 829.57,266.241C829.295,266.241 831.708,265.116 833,263.741ZM738,229.846C727.258,221.833 720.833,217.241 720.361,217.241C719.782,217.241 710.819,211.114 710,210.158C708.814,208.775 697.586,204.092 692.762,202.969C689.868,202.295 683,201.799 677.5,201.867C674.287,201.907 672.148,201.925 670.937,201.897C669.369,201.859 669.043,201.592 670.27,201.338C670.828,201.222 671.959,201.229 673,201.051C682.521,199.424 695.044,201.328 704.747,205.877C707.911,207.361 710.725,208.837 711,209.158C711.819,210.114 720.782,216.241 721.361,216.241C721.832,216.241 728.128,220.74 739,228.844C742.257,231.272 743.021,231.414 750,230.88C754.878,230.508 761.346,228.972 768.5,226.487C777.719,223.286 779.717,222.216 780.838,219.885C783.399,214.558 776.759,202.501 768.336,197.182C766.595,196.083 764.795,195.25 764.336,195.331C761.117,195.897 752.907,195.018 751.821,193.991C749.471,191.768 737.721,184.241 736.594,184.237C735.141,184.231 726.071,179.605 724.076,177.852C723.209,177.089 719.739,175.085 716.364,173.397C712.299,171.364 708.65,168.48 705.551,164.853C700.411,158.836 694.571,155.241 689.937,155.241C686.045,155.241 681,153.079 678.595,150.379C674.844,146.169 661.786,149.262 660.425,154.683C659.42,158.689 660.77,163.649 664.017,167.875C672.276,178.625 672.516,179.16 672.27,186.337C672.043,192.951 667.294,199.961 666.511,200.363C666.241,200.502 667.828,200.687 668.564,201.02C669.152,201.287 670.022,201.385 669.709,201.766C669.34,202.217 665,201.566 665,200.741C665,199.916 665.406,199.241 665.901,199.241C667.999,199.241 670.997,191.97 671.245,186.28C671.473,181.031 671.161,179.96 668.272,176.078C661.022,166.337 659.805,164.209 659.291,160.373C658.995,158.167 659.049,155.181 659.412,153.737C660.827,148.1 675.611,144.908 679.595,149.379C682,152.079 687.045,154.241 690.937,154.241C695.549,154.241 701.142,157.69 706.392,163.77C709.54,167.417 713.257,170.342 717.33,172.38C720.724,174.077 724.209,176.089 725.076,176.852C727.071,178.605 736.141,183.232 737.594,183.237C738.721,183.241 750.471,190.768 752.821,192.991C753.58,193.709 756.726,194.241 760.203,194.241C769.482,194.241 775.844,199.118 780.603,209.879C783.238,215.836 783.284,220.941 780.724,223.046C780.051,223.599 774.775,225.69 769,227.692C761.489,230.296 756.08,231.492 750,231.894C741.961,232.426 741.31,232.315 738,229.846Z"/>
        </g>
        <g id="mounting-holes" serif:id="mounting holes" transform="matrix(0.757475,0,0,0.757475,6.84729,258.383)">
            <g transform="matrix(0.399955,0,0,0.406687,448.092,334.753)">
                <ellipse cx="302.796" cy="560.872" rx="5.67" ry="5.576" style="fill:none;stroke:black;stroke-width:2.48px;"/>
            </g>
            <g transform="matrix(0.399955,0,0,0.406687,164.628,334.753)">
                <ellipse cx="302.796" cy="560.872" rx="5.67" ry="5.576" style="fill:none;stroke:black;stroke-width:2.48px;"/>
            </g>
        </g>
    </g>
</svg>
