<?xml version="1.0" encoding="UTF-8" standalone="no"?>
<!-- Created with Inkscape (http://www.inkscape.org/) -->

<svg
   xmlns:serif="http://www.serif.com/"
   xmlns:dc="http://purl.org/dc/elements/1.1/"
   xmlns:cc="http://creativecommons.org/ns#"
   xmlns:rdf="http://www.w3.org/1999/02/22-rdf-syntax-ns#"
   xmlns:svg="http://www.w3.org/2000/svg"
   xmlns="http://www.w3.org/2000/svg"
   xmlns:sodipodi="http://sodipodi.sourceforge.net/DTD/sodipodi-0.dtd"
   xmlns:inkscape="http://www.inkscape.org/namespaces/inkscape"
   sodipodi:docname="etype-box-v2-inkscape.svg"
   inkscape:version="0.92.4 (5da689c313, 2019-01-14)"
   id="svg7022"
   version="1.1"
   viewBox="0 0 420 297"
   height="297mm"
   width="420mm">
  <defs
     id="defs7016" />
  <sodipodi:namedview
     id="base"
     pagecolor="#ffffff"
     bordercolor="#666666"
     borderopacity="1.0"
     inkscape:pageopacity="0.0"
     inkscape:pageshadow="2"
     inkscape:zoom="0.47376154"
     inkscape:cx="406.81975"
     inkscape:cy="647.69057"
     inkscape:document-units="mm"
     inkscape:current-layer="layer1"
     showgrid="false"
     inkscape:window-width="1920"
     inkscape:window-height="974"
     inkscape:window-x="-11"
     inkscape:window-y="-11"
     inkscape:window-maximized="1" />
  <metadata
     id="metadata7019">
    <rdf:RDF>
      <cc:Work
         rdf:about="">
        <dc:format>image/svg+xml</dc:format>
        <dc:type
           rdf:resource="http://purl.org/dc/dcmitype/StillImage" />
        <dc:title></dc:title>
      </cc:Work>
    </rdf:RDF>
  </metadata>
  <g
     inkscape:label="Layer 1"
     inkscape:groupmode="layer"
     id="layer1">
    <g
       style="clip-rule:evenodd;fill-rule:evenodd;stroke:#000000;stroke-width:0.26624697;stroke-linecap:round;stroke-miterlimit:4;stroke-dasharray:none;stroke-opacity:1"
       id="bottom_outsideCutPath"
       transform="matrix(0,-0.99375151,0.99375151,0,209.09179,620.60071)">
        <g
   id="Bottom"
   style="stroke:#000000;stroke-width:0.26624697;stroke-miterlimit:4;stroke-dasharray:none;stroke-opacity:1">
            <path
   inkscape:connector-curvature="0"
   id="bottom_outsideCutPath1"
   serif:id="bottom_outsideCutPath"
   d="m 377.005,205.4 h 23.99 v 3 h 24.79 v -3 H 444.2 v -15.635 h 3 v -24.79 h -3 v -23.99 h 3 v -24.79 h -3 v -23.99 h 3 v -24.79 h -3 v -23.99 h 3 v -24.79 h -3 V 3 H 425.785 V 0 h -24.79 v 3 h -23.99 V 0 h -24.79 V 3 H 333.8 v 15.635 h -3 v 24.79 h 3 v 23.99 h -3 v 24.79 h 3 v 23.99 h -3 v 24.79 h 3 v 23.99 h -3 v 24.79 h 3 V 205.4 h 18.415 v 3 h 24.79 z"
   style="fill:none;stroke:#000000;stroke-width:0.26624697;stroke-miterlimit:4;stroke-dasharray:none;stroke-opacity:1" />

        </g>

    </g>
    <g
       style="clip-rule:evenodd;fill-rule:evenodd;stroke:#000000;stroke-width:0.26624703;stroke-linecap:round;stroke-miterlimit:4;stroke-dasharray:none;stroke-opacity:1"
       id="back_outsideCutPath"
       transform="matrix(-0.99374929,0,0,-0.99375151,295.80471,178.85161)">
        <g
   id="Back"
   style="stroke:#000000;stroke-width:0.26624703;stroke-miterlimit:4;stroke-dasharray:none;stroke-opacity:1">
            <path
   inkscape:connector-curvature="0"
   id="back_outsideCutPath1"
   serif:id="back_outsideCutPath"
   d="m 21.815,149 h 23.99 v 3 h 24.79 v -3 h 23.99 v 3 H 116.4 v -14.705 h -3 V 124.6 h -42 v -26 H 0 v 14.705 h 3 v 23.99 H 0 V 152 h 21.815 z"
   style="fill:none;stroke:#000000;stroke-width:0.26624703;stroke-miterlimit:4;stroke-dasharray:none;stroke-opacity:1" />

        </g>

    </g>
    <g
       style="clip-rule:evenodd;fill-rule:evenodd;stroke:#000000;stroke-width:0.26624697;stroke-linecap:round;stroke-miterlimit:4;stroke-dasharray:none;stroke-opacity:1"
       id="front_outsideCutPath"
       transform="matrix(-0.99375151,0,0,-0.99375151,415.80497,234.88093)">
        <g
   id="Front"
   style="stroke:#000000;stroke-width:0.26624697;stroke-miterlimit:4;stroke-dasharray:none;stroke-opacity:1">
            <path
   inkscape:connector-curvature="0"
   id="front_outsideCutPath1"
   serif:id="front_outsideCutPath"
   d="m 21.815,205.4 h 23.99 v 3 h 24.79 v -3 h 23.99 v 3 H 116.4 v -14.705 h -3 v -23.99 h 3 V 155 L 3,169.705 v 23.99 H 0 V 208.4 h 21.815 z"
   style="fill:none;stroke:#000000;stroke-width:0.26624697;stroke-miterlimit:4;stroke-dasharray:none;stroke-opacity:1" />

        </g>

    </g>
    <g
       style="clip-rule:evenodd;fill-rule:evenodd;stroke:#000000;stroke-width:0.26624709;stroke-linecap:round;stroke-miterlimit:4;stroke-dasharray:none;stroke-opacity:1"
       id="right_outsideCutPath"
       transform="matrix(0.9937496,0,0,0.99375151,90.438092,-34.182529)">
        <g
   id="Right"
   style="stroke:#000000;stroke-width:0.26624709;stroke-miterlimit:4;stroke-dasharray:none;stroke-opacity:1">
            <path
   inkscape:connector-curvature="0"
   id="right_outsideCutPath1"
   serif:id="right_outsideCutPath"
   d="m 138.435,149 h 23.99 v 3 h 24.79 v -3 h 23.99 v 3 h 24.79 v -3 h 23.99 v 3 h 24.79 v -3 h 23.99 v 3 H 324.8 v -14.305 h 3 v -24.79 h -3 L 122.4,124.6 h -3 v 13.095 h 3 V 152 h 16.035 z"
   style="fill:none;stroke:#000000;stroke-width:0.26624709;stroke-miterlimit:4;stroke-dasharray:none;stroke-opacity:1" />

        </g>

    </g>
    <g
       style="clip-rule:evenodd;fill-rule:evenodd;stroke:#000000;stroke-width:0.26624697;stroke-linecap:round;stroke-miterlimit:4;stroke-dasharray:none;stroke-opacity:1"
       id="left_outsideCutPath"
       transform="matrix(0.99375151,0,0,0.99375151,90.437862,-34.230114)">
        <g
   id="Left"
   style="stroke:#000000;stroke-width:0.26624697;stroke-miterlimit:4;stroke-dasharray:none;stroke-opacity:1">
            <path
   inkscape:connector-curvature="0"
   id="left_outsideCutPath1"
   serif:id="left_outsideCutPath"
   d="m 138.435,205.4 h 23.99 v 3 h 24.79 v -3 h 23.99 v 3 h 24.79 v -3 h 23.99 v 3 h 24.79 v -3 h 23.99 v 3 H 324.8 v -14.305 h 3 v -24.79 h -3 V 155 H 224.4 c 0,0 -6.316,30.869 -10,31 -4.164,0.148 -10,-16 -10,-16 l -82,-15 v 14.305 h -3 v 24.79 h 3 V 208.4 h 16.035 z"
   style="fill:none;stroke:#000000;stroke-width:0.26624697;stroke-miterlimit:4;stroke-dasharray:none;stroke-opacity:1" />

        </g>

    </g>
  </g>
</svg>
