<svg width="447.2mm" height="208.4mm" viewBox="0 0 447.2 208.4" xmlns="http://www.w3.org/2000/svg" version="1.1" preserveAspectRatio="xMidYMid meet"><g id="svgGroup" stroke-linecap="round" fill-rule="evenodd" font-size="9pt" stroke="#000" stroke-width="0.25mm" fill="none" style="stroke:#000;stroke-width:0.25mm;fill:none"><path d="M 21.815 205.4 L 45.805 205.4 L 45.805 208.4 L 70.595 208.4 L 70.595 205.4 L 94.585 205.4 L 94.585 208.4 L 116.4 208.4 L 116.4 193.695 L 113.4 193.695 L 113.4 169.705 L 116.4 169.705 L 116.4 155 L 0 155 L 0 169.705 L 3 169.705 L 3 193.695 L 0 193.695 L 0 208.4 L 21.815 208.4 L 21.815 205.4 Z" id="front_outsideCutPath" stroke="#FF0000" stroke-width="0.1" style="stroke:#FF0000;stroke-width:0.1" vector-effect="non-scaling-stroke"/><path d="M 138.435 205.4 L 162.425 205.4 L 162.425 208.4 L 187.215 208.4 L 187.215 205.4 L 211.205 205.4 L 211.205 208.4 L 235.995 208.4 L 235.995 205.4 L 259.985 205.4 L 259.985 208.4 L 284.775 208.4 L 284.775 205.4 L 308.765 205.4 L 308.765 208.4 L 324.8 208.4 L 324.8 194.095 L 327.8 194.095 L 327.8 169.305 L 324.8 169.305 L 324.8 155 L 122.4 155 L 122.4 169.305 L 119.4 169.305 L 119.4 194.095 L 122.4 194.095 L 122.4 208.4 L 138.435 208.4 L 138.435 205.4 Z" id="left_outsideCutPath" stroke="#FF0000" stroke-width="0.1" style="stroke:#FF0000;stroke-width:0.1" vector-effect="non-scaling-stroke"/><path d="M 21.815 149 L 45.805 149 L 45.805 152 L 70.595 152 L 70.595 149 L 94.585 149 L 94.585 152 L 116.4 152 L 116.4 137.295 L 113.4 137.295 L 113.4 113.305 L 116.4 113.305 L 116.4 98.6 L 0 98.6 L 0 113.305 L 3 113.305 L 3 137.295 L 0 137.295 L 0 152 L 21.815 152 L 21.815 149 Z" id="back_outsideCutPath" stroke="#FF0000" stroke-width="0.1" style="stroke:#FF0000;stroke-width:0.1" vector-effect="non-scaling-stroke"/><path d="M 138.435 149 L 162.425 149 L 162.425 152 L 187.215 152 L 187.215 149 L 211.205 149 L 211.205 152 L 235.995 152 L 235.995 149 L 259.985 149 L 259.985 152 L 284.775 152 L 284.775 149 L 308.765 149 L 308.765 152 L 324.8 152 L 324.8 137.695 L 327.8 137.695 L 327.8 112.905 L 324.8 112.905 L 324.8 98.6 L 122.4 98.6 L 122.4 112.905 L 119.4 112.905 L 119.4 137.695 L 122.4 137.695 L 122.4 152 L 138.435 152 L 138.435 149 Z" id="right_outsideCutPath" stroke="#FF0000" stroke-width="0.1" style="stroke:#FF0000;stroke-width:0.1" vector-effect="non-scaling-stroke"/><path d="M 377.005 205.4 L 400.995 205.4 L 400.995 208.4 L 425.785 208.4 L 425.785 205.4 L 444.2 205.4 L 444.2 189.765 L 447.2 189.765 L 447.2 164.975 L 444.2 164.975 L 444.2 140.985 L 447.2 140.985 L 447.2 116.195 L 444.2 116.195 L 444.2 92.205 L 447.2 92.205 L 447.2 67.415 L 444.2 67.415 L 444.2 43.425 L 447.2 43.425 L 447.2 18.635 L 444.2 18.635 L 444.2 3 L 425.785 3 L 425.785 0 L 400.995 0 L 400.995 3 L 377.005 3 L 377.005 0 L 352.215 0 L 352.215 3 L 333.8 3 L 333.8 18.635 L 330.8 18.635 L 330.8 43.425 L 333.8 43.425 L 333.8 67.415 L 330.8 67.415 L 330.8 92.205 L 333.8 92.205 L 333.8 116.195 L 330.8 116.195 L 330.8 140.985 L 333.8 140.985 L 333.8 164.975 L 330.8 164.975 L 330.8 189.765 L 333.8 189.765 L 333.8 205.4 L 352.215 205.4 L 352.215 208.4 L 377.005 208.4 L 377.005 205.4 Z" id="bottom_outsideCutPath" stroke="#FF0000" stroke-width="0.1" style="stroke:#FF0000;stroke-width:0.1" vector-effect="non-scaling-stroke"/></g></svg>