<?xml version="1.0" encoding="UTF-8" standalone="no"?>
<!DOCTYPE svg PUBLIC "-//W3C//DTD SVG 1.1//EN" "http://www.w3.org/Graphics/SVG/1.1/DTD/svg11.dtd">
<svg width="100%" height="100%" viewBox="0 0 1588 1123" version="1.1" xmlns="http://www.w3.org/2000/svg" xmlns:xlink="http://www.w3.org/1999/xlink" xml:space="preserve" xmlns:serif="http://www.serif.com/" style="fill-rule:evenodd;clip-rule:evenodd;">
    <g id="Botton-outline" transform="matrix(3.77953,0,0,3.77953,18.8976,904.063)">
        <g id="Bottom">
            <path id="Botton-outline1" serif:id="Botton-outline" d="M55.499,-234.2L55.499,-231.2L49.899,-231.2L49.899,-234.2L43.499,-234.2L43.499,-231.2L37.899,-231.2L37.899,-234.2L31.499,-234.2L31.499,-231.2L25.9,-231.2L25.9,-234.2L19.5,-234.2L19.5,-231.2L13.9,-231.2L13.9,-234.2L7.5,-234.2L7.5,-231.2L2.999,-231.2L2.999,-222.7L0,-222.7L0,-216.3L2.999,-216.3L2.999,-210.7L0,-210.7L0,-204.3L2.999,-204.3L2.999,-198.7L0,-198.7L0,-192.3L2.999,-192.3L2.999,-186.7L0,-186.7L0,-180.3L2.999,-180.3L2.999,-174.7L0,-174.7L0,-168.3L2.999,-168.3L2.999,-162.701L0,-162.701L0,-156.301L2.999,-156.301L2.999,-150.7L0,-150.7L0,-144.3L2.999,-144.3L2.999,-138.7L0,-138.7L0,-132.3L2.999,-132.3L2.999,-126.7L0,-126.7L0,-120.3L2.999,-120.3L2.999,-114.7L0,-114.7L0,-108.3L2.999,-108.3L2.999,-102.7L0,-102.7L0,-96.3L2.999,-96.3L2.999,-90.7L0,-90.7L0,-84.3L2.999,-84.3L2.999,-75.8L7.5,-75.8L7.5,-72.8L13.9,-72.8L13.9,-75.8L19.5,-75.8L19.5,-72.8L25.9,-72.8L25.9,-75.8L31.499,-75.8L31.499,-72.8L37.899,-72.8L37.899,-75.8L43.499,-75.8L43.499,-72.8L49.899,-72.8L49.899,-75.8L55.499,-75.8L55.499,-72.8L61.899,-72.8L61.899,-75.8L67.499,-75.8L67.499,-72.8L73.9,-72.8L73.9,-75.8L79.5,-75.8L79.5,-72.8L85.9,-72.8L85.9,-75.8L91.5,-75.8L91.5,-72.8L97.9,-72.8L97.9,-75.8L103.5,-75.8L103.5,-72.8L109.9,-72.8L109.9,-75.8L115.5,-75.8L115.5,-72.8L121.9,-72.8L121.9,-75.8L127.5,-75.8L127.5,-72.8L133.9,-72.8L133.9,-75.8L138.4,-75.8L138.4,-84.3L141.399,-84.3L141.399,-90.7L138.4,-90.7L138.4,-96.3L141.399,-96.3L141.399,-102.7L138.4,-102.7L138.4,-108.3L141.399,-108.3L141.399,-114.7L138.4,-114.7L138.4,-120.3L141.399,-120.3L141.399,-126.7L138.4,-126.7L138.4,-132.3L141.399,-132.3L141.399,-138.7L138.4,-138.7L138.4,-144.3L141.399,-144.3L141.399,-150.7L138.4,-150.7L138.4,-156.301L141.399,-156.301L141.399,-162.701L138.4,-162.701L138.4,-168.3L141.399,-168.3L141.399,-174.7L138.4,-174.7L138.4,-180.3L141.399,-180.3L141.399,-186.7L138.4,-186.7L138.4,-192.3L141.399,-192.3L141.399,-198.7L138.4,-198.7L138.4,-204.3L141.399,-204.3L141.399,-210.7L138.4,-210.7L138.4,-216.3L141.399,-216.3L141.399,-222.7L138.4,-222.7L138.4,-231.2L133.9,-231.2L133.9,-234.2L127.5,-234.2L127.5,-231.2L121.9,-231.2L121.9,-234.2L115.5,-234.2L115.5,-231.2L109.9,-231.2L109.9,-234.2L103.5,-234.2L103.5,-231.2L97.9,-231.2L97.9,-234.2L91.5,-234.2L91.5,-231.2L85.9,-231.2L85.9,-234.2L79.5,-234.2L79.5,-231.2L73.9,-231.2L73.9,-234.2L67.499,-234.2L67.499,-231.2L61.899,-231.2L61.899,-234.2L55.499,-234.2Z" style="fill:none;fill-rule:nonzero;stroke:black;stroke-width:0.26px;"/>
        </g>
    </g>
    <g id="Left-outline" transform="matrix(-3.77953,-5.49352e-16,5.49352e-16,-3.77953,1486.19,-113.008)">
        <g id="Left">
            <path id="Left-outline1" serif:id="Left-outline" d="M161.4,-62.3L158.4,-62.3L158.4,-68.3C158.4,-68.3 156.139,-68.034 153.853,-67.15C150.724,-65.939 146.921,-63.956 143.079,-63.465C129.085,-61.678 109.342,-62.377 95,-63.3C90.566,-63.585 89.992,-70.908 83.734,-71.751C66.207,-74.115 52.205,-78.904 34.86,-80.018C22.229,-80.83 3,-78.3 3,-78.3L3,-62.3L0,-62.3L0,-55.9L3,-55.9L3,-50.3L0,-50.3L0,-43.9L3,-43.9L3,-38.3L0,-38.3L0,-34.9L11.9,-34.9L11.9,-37.9L17.5,-37.9L17.5,-34.9L23.9,-34.9L23.9,-37.9L29.5,-37.9L29.5,-34.9L35.9,-34.9L35.9,-37.9L41.5,-37.9L41.5,-34.9L47.9,-34.9L47.9,-37.9L53.5,-37.9L53.5,-34.9L59.9,-34.9L59.9,-37.9L65.5,-37.9L65.5,-34.9L71.899,-34.9L71.899,-37.9L77.5,-37.9L77.5,-34.9L83.9,-34.9L83.9,-37.9L89.5,-37.9L89.5,-34.9L95.9,-34.9L95.9,-37.9L101.5,-37.9L101.5,-34.9L107.9,-34.9L107.9,-37.9L113.5,-37.9L113.5,-34.9L119.9,-34.9L119.9,-37.9L125.5,-37.9L125.5,-34.9L131.9,-34.9L131.9,-37.9L137.5,-37.9L137.5,-34.9L143.9,-34.9L143.9,-37.9L149.5,-37.9L149.5,-34.9L161.4,-34.9L161.4,-38.3L158.4,-38.3L158.4,-43.9L161.4,-43.9L161.4,-50.3L158.4,-50.3L158.4,-55.9L161.4,-55.9L161.4,-62.3Z" style="fill:none;fill-rule:nonzero;stroke:black;stroke-width:0.26px;"/>
        </g>
    </g>
    <g id="Back-outline" transform="matrix(3.77953,0,0,3.77953,22.2813,297.18)">
        <g id="Back">
            <path id="Back-outline1" serif:id="Back-outline" d="M200.299,1.5L200.299,-1.5L205.899,-1.5L205.899,1.5L212.299,1.5L212.299,-1.5L217.899,-1.5L217.899,1.5L224.299,1.5L224.299,-1.5L229.899,-1.5L229.899,1.5L236.299,1.5L236.299,-1.5L241.899,-1.5L241.899,1.5L248.299,1.5L248.299,-1.5L253.899,-1.5L253.899,1.5L260.299,1.5L260.299,-1.5L265.899,-1.5L265.899,1.5L272.299,1.5L272.299,-1.5L277.899,-1.5L277.899,1.5L282.799,1.5L282.799,-1.5L285.799,-1.5L285.799,-7.9L282.799,-7.9L282.799,-13.5L285.799,-13.5L285.799,-19.9L282.799,-19.9L282.799,-25.5L285.799,-25.5L285.799,-41.9C285.799,-41.9 217.966,-33.567 194.399,-36.9C190.21,-37.492 169.289,-60.291 163.958,-61.755C147.359,-66.311 144.399,-51.9 144.399,-51.9L144.399,-25.5L147.399,-25.5L147.399,-19.9L144.399,-19.9L144.399,-13.5L147.399,-13.5L147.399,-7.9L144.399,-7.9L144.399,-1.5L147.399,-1.5L147.399,1.5L152.299,1.5L152.299,-1.5L157.899,-1.5L157.899,1.5L164.299,1.5L164.299,-1.5L169.899,-1.5L169.899,1.5L176.299,1.5L176.299,-1.5L181.899,-1.5L181.899,1.5L188.299,1.5L188.299,-1.5L193.899,-1.5L193.899,1.5L200.299,1.5Z" style="fill:none;fill-rule:nonzero;stroke:black;stroke-width:0.26px;"/>
        </g>
    </g>
    <g id="Right-outline" transform="matrix(3.77953,8.64936e-17,-8.64936e-17,3.77953,64.1593,577.767)">
        <g id="Right">
            <path id="Right-outline1" serif:id="Right-outline" d="M325.799,-62.3L322.799,-62.3L322.799,-88.3C322.799,-88.3 319.152,-93.297 312.466,-92.099C302.386,-90.293 285.495,-85.007 281.185,-79.263C277.99,-75.006 280.177,-62.389 274.4,-60.3C266.157,-57.32 238.224,-59.047 229.4,-60.3C225.791,-60.812 225.054,-67.236 221.455,-67.816C212.647,-69.236 185.565,-69.403 176.555,-68.817C173.159,-68.597 167.4,-64.3 167.4,-64.3L167.4,-62.3L164.4,-62.3L164.4,-55.9L167.4,-55.9L167.4,-50.3L164.4,-50.3L164.4,-43.9L167.4,-43.9L167.4,-38.3L164.4,-38.3L164.4,-34.9L176.3,-34.9L176.3,-37.9L181.899,-37.9L181.899,-34.9L188.299,-34.9L188.299,-37.9L193.9,-37.9L193.9,-34.9L200.299,-34.9L200.299,-37.9L205.899,-37.9L205.899,-34.9L212.3,-34.9L212.3,-37.9L217.899,-37.9L217.899,-34.9L224.299,-34.9L224.299,-37.9L229.9,-37.9L229.9,-34.9L236.299,-34.9L236.299,-37.9L241.899,-37.9L241.899,-34.9L248.3,-34.9L248.3,-37.9L253.9,-37.9L253.9,-34.9L260.299,-34.9L260.299,-37.9L265.9,-37.9L265.9,-34.9L272.3,-34.9L272.3,-37.9L277.899,-37.9L277.899,-34.9L284.3,-34.9L284.3,-37.9L289.9,-37.9L289.9,-34.9L296.299,-34.9L296.299,-37.9L301.9,-37.9L301.9,-34.9L308.3,-34.9L308.3,-37.9L313.899,-37.9L313.899,-34.9L325.799,-34.9L325.799,-38.3L322.799,-38.3L322.799,-43.9L325.799,-43.9L325.799,-50.3L322.799,-50.3L322.799,-55.9L325.799,-55.9L325.799,-62.3Z" style="fill:none;fill-rule:nonzero;stroke:black;stroke-width:0.26px;"/>
        </g>
    </g>
    <g id="Front-outline" transform="matrix(3.77953,0,0,3.77953,604.33,615.125)">
        <g id="Front">
            <path id="Front-outline1" serif:id="Front-outline" d="M55.9,1.5L55.9,-1.5L61.5,-1.5L61.5,1.5L67.9,1.5L67.9,-1.5L73.5,-1.5L73.5,1.5L79.9,1.5L79.9,-1.5L85.5,-1.5L85.5,1.5L91.899,1.5L91.899,-1.5L97.5,-1.5L97.5,1.5L103.9,1.5L103.9,-1.5L109.5,-1.5L109.5,1.5L115.9,1.5L115.9,-1.5L121.5,-1.5L121.5,1.5L127.9,1.5L127.9,-1.5L133.5,-1.5L133.5,1.5L138.4,1.5L138.4,-1.5L141.399,-1.5L141.399,-7.9L138.4,-7.9L138.4,-13.5L141.399,-13.5L141.399,-19.9L138.4,-19.9L138.4,-25.5L141.399,-25.5L141.399,-27.9C141.399,-27.9 67.733,-30.4 50,-31.9C44.748,-32.344 40.23,-36.246 35,-36.9C28.333,-37.733 15.833,-37.733 10,-36.9C6.311,-36.373 0,-31.9 0,-31.9L0,-25.5L3,-25.5L3,-19.9L0,-19.9L0,-13.5L3,-13.5L3,-7.9L0,-7.9L0,-1.5L3,-1.5L3,1.5L7.9,1.5L7.9,-1.5L13.5,-1.5L13.5,1.5L19.9,1.5L19.9,-1.5L25.499,-1.5L25.499,1.5L31.9,1.5L31.9,-1.5L37.5,-1.5L37.5,1.5L43.9,1.5L43.9,-1.5L49.5,-1.5L49.5,1.5L55.9,1.5Z" style="fill:none;fill-rule:nonzero;stroke:black;stroke-width:0.26px;"/>
        </g>
    </g>
    <g transform="matrix(0.709966,0,0,0.709966,347.209,161.285)">
        <g id="Engraving">
            <g transform="matrix(50.6144,0,0,50.6144,1014.53,570.008)">
            </g>
            <text x="683.719px" y="570.008px" style="font-family:'BMDoHyeon-OTF', 'BM Dohyeon', sans-serif;font-size:50.614px;fill:rgb(35,31,32);">Leopard 2A6</text>
        </g>
    </g>
</svg>
