<?xml version="1.0" encoding="UTF-8"?>
<!-- Created by Makercase v3 -->
<svg width="335.80mm" height="245.70mm" viewBox="-5 -239.20029333333338 335.80 245.70" version="1.1" xmlns="http://www.w3.org/2000/svg" xmlns:xlink="http://www.w3.org/1999/xlink"><path d="M63.521 -18.950L63.521 -14.450" fill="none" stroke="#777777" stroke-width="0.5"></path>
<path d="M63.521 -18.950L66.307 -18.950" fill="none" stroke="#777777" stroke-width="0.5"></path>
<path d="M63.521 -16.807L65.235 -16.807" fill="none" stroke="#777777" stroke-width="0.5"></path>
<path d="M67.378 -17.450L67.378 -14.450" fill="none" stroke="#777777" stroke-width="0.5"></path>
<path d="M67.378 -16.164L67.593 -16.807L68.021 -17.236L68.450 -17.450L69.093 -17.450" fill="none" stroke="#777777" stroke-width="0.5"></path>
<path d="M71.021 -17.450L70.593 -17.236L70.164 -16.807L69.950 -16.164L69.950 -15.736L70.164 -15.093L70.593 -14.664L71.021 -14.450L71.664 -14.450L72.093 -14.664L72.521 -15.093L72.735 -15.736L72.735 -16.164L72.521 -16.807L72.093 -17.236L71.664 -17.450L71.021 -17.450Z" fill="none" stroke="#777777" stroke-width="0.5"></path>
<path d="M74.235 -17.450L74.235 -14.450" fill="none" stroke="#777777" stroke-width="0.5"></path>
<path d="M74.235 -16.593L74.878 -17.236L75.307 -17.450L75.950 -17.450L76.378 -17.236L76.593 -16.593L76.593 -14.450" fill="none" stroke="#777777" stroke-width="0.5"></path>
<path d="M78.521 -18.950L78.521 -15.307L78.735 -14.664L79.164 -14.450L79.593 -14.450" fill="none" stroke="#777777" stroke-width="0.5"></path>
<path d="M77.878 -17.450L79.378 -17.450" fill="none" stroke="#777777" stroke-width="0.5"></path>
<path d="M55.900 1.500L55.900 -1.500L61.500 -1.500L61.500 1.500L67.900 1.500L67.900 -1.500L73.500 -1.500L73.500 1.500L79.900 1.500L79.900 -1.500L85.500 -1.500L85.500 1.500L91.899 1.500L91.899 -1.500L97.500 -1.500L97.500 1.500L103.900 1.500L103.900 -1.500L109.500 -1.500L109.500 1.500L115.900 1.500L115.900 -1.500L121.500 -1.500L121.500 1.500L127.900 1.500L127.900 -1.500L133.500 -1.500L133.500 1.500L138.400 1.500L138.400 -1.500L141.399 -1.500L141.399 -7.900L138.400 -7.900L138.400 -13.500L141.399 -13.500L141.399 -19.900L138.400 -19.900L138.400 -25.500L141.399 -25.500L141.399 -31.900L0.000 -31.900L0.000 -25.500L3.000 -25.500L3.000 -19.900L0.000 -19.900L0.000 -13.500L3.000 -13.500L3.000 -7.900L0.000 -7.900L0.000 -1.500L3.000 -1.500L3.000 1.500L7.900 1.500L7.900 -1.500L13.500 -1.500L13.500 1.500L19.900 1.500L19.900 -1.500L25.499 -1.500L25.499 1.500L31.900 1.500L31.900 -1.500L37.500 -1.500L37.500 1.500L43.900 1.500L43.900 -1.500L49.500 -1.500L49.500 1.500L55.900 1.500Z" fill="none" stroke="#ff0000" stroke-width="1.000"></path>
<path d="M208.563 -18.950L208.563 -14.450" fill="none" stroke="#777777" stroke-width="0.5"></path>
<path d="M208.563 -18.950L210.492 -18.950L211.135 -18.736L211.349 -18.521L211.563 -18.093L211.563 -17.664L211.349 -17.236L211.135 -17.021L210.492 -16.807" fill="none" stroke="#777777" stroke-width="0.5"></path>
<path d="M208.563 -16.807L210.492 -16.807L211.135 -16.593L211.349 -16.379L211.563 -15.950L211.563 -15.307L211.349 -14.879L211.135 -14.664L210.492 -14.450L208.563 -14.450" fill="none" stroke="#777777" stroke-width="0.5"></path>
<path d="M215.421 -17.450L215.421 -14.450" fill="none" stroke="#777777" stroke-width="0.5"></path>
<path d="M215.421 -16.807L214.992 -17.236L214.563 -17.450L213.921 -17.450L213.492 -17.236L213.063 -16.807L212.849 -16.164L212.849 -15.736L213.063 -15.093L213.492 -14.664L213.921 -14.450L214.563 -14.450L214.992 -14.664L215.421 -15.093" fill="none" stroke="#777777" stroke-width="0.5"></path>
<path d="M219.492 -16.807L219.063 -17.236L218.635 -17.450L217.992 -17.450L217.563 -17.236L217.135 -16.807L216.921 -16.164L216.921 -15.736L217.135 -15.093L217.563 -14.664L217.992 -14.450L218.635 -14.450L219.063 -14.664L219.492 -15.093" fill="none" stroke="#777777" stroke-width="0.5"></path>
<path d="M220.992 -18.950L220.992 -14.450" fill="none" stroke="#777777" stroke-width="0.5"></path>
<path d="M223.135 -17.450L220.992 -15.307" fill="none" stroke="#777777" stroke-width="0.5"></path>
<path d="M221.849 -16.164L223.349 -14.450" fill="none" stroke="#777777" stroke-width="0.5"></path>
<path d="M200.299 1.500L200.299 -1.500L205.899 -1.500L205.899 1.500L212.299 1.500L212.299 -1.500L217.899 -1.500L217.899 1.500L224.299 1.500L224.299 -1.500L229.899 -1.500L229.899 1.500L236.299 1.500L236.299 -1.500L241.899 -1.500L241.899 1.500L248.299 1.500L248.299 -1.500L253.899 -1.500L253.899 1.500L260.299 1.500L260.299 -1.500L265.899 -1.500L265.899 1.500L272.299 1.500L272.299 -1.500L277.899 -1.500L277.899 1.500L282.799 1.500L282.799 -1.500L285.799 -1.500L285.799 -7.900L282.799 -7.900L282.799 -13.500L285.799 -13.500L285.799 -19.900L282.799 -19.900L282.799 -25.500L285.799 -25.500L285.799 -31.900L144.399 -31.900L144.399 -25.500L147.399 -25.500L147.399 -19.900L144.399 -19.900L144.399 -13.500L147.399 -13.500L147.399 -7.900L144.399 -7.900L144.399 -1.500L147.399 -1.500L147.399 1.500L152.299 1.500L152.299 -1.500L157.899 -1.500L157.899 1.500L164.299 1.500L164.299 -1.500L169.899 -1.500L169.899 1.500L176.299 1.500L176.299 -1.500L181.899 -1.500L181.899 1.500L188.299 1.500L188.299 -1.500L193.899 -1.500L193.899 1.500L200.299 1.500Z" fill="none" stroke="#ff0000" stroke-width="1.000"></path>
<path d="M75.878 -55.350L75.878 -50.850" fill="none" stroke="#777777" stroke-width="0.5"></path>
<path d="M75.878 -50.850L78.450 -50.850" fill="none" stroke="#777777" stroke-width="0.5"></path>
<path d="M79.307 -52.564L81.878 -52.564L81.878 -52.993L81.664 -53.421L81.450 -53.636L81.021 -53.850L80.378 -53.850L79.950 -53.636L79.521 -53.207L79.307 -52.564L79.307 -52.136L79.521 -51.493L79.950 -51.064L80.378 -50.850L81.021 -50.850L81.450 -51.064L81.878 -51.493" fill="none" stroke="#777777" stroke-width="0.5"></path>
<path d="M84.664 -55.350L84.236 -55.350L83.807 -55.136L83.593 -54.493L83.593 -50.850" fill="none" stroke="#777777" stroke-width="0.5"></path>
<path d="M82.950 -53.850L84.450 -53.850" fill="none" stroke="#777777" stroke-width="0.5"></path>
<path d="M86.164 -55.350L86.164 -51.707L86.378 -51.064L86.807 -50.850L87.236 -50.850" fill="none" stroke="#777777" stroke-width="0.5"></path>
<path d="M85.521 -53.850L87.021 -53.850" fill="none" stroke="#777777" stroke-width="0.5"></path>
<path d="M161.400 -62.300L158.400 -62.300L158.400 -68.300L3.000 -68.300L3.000 -62.300L0.000 -62.300L0.000 -55.900L3.000 -55.900L3.000 -50.300L0.000 -50.300L0.000 -43.900L3.000 -43.900L3.000 -38.300L0.000 -38.300L0.000 -34.900L11.900 -34.900L11.900 -37.900L17.500 -37.900L17.500 -34.900L23.900 -34.900L23.900 -37.900L29.500 -37.900L29.500 -34.900L35.900 -34.900L35.900 -37.900L41.500 -37.900L41.500 -34.900L47.900 -34.900L47.900 -37.900L53.500 -37.900L53.500 -34.900L59.900 -34.900L59.900 -37.900L65.500 -37.900L65.500 -34.900L71.899 -34.900L71.899 -37.900L77.500 -37.900L77.500 -34.900L83.900 -34.900L83.900 -37.900L89.500 -37.900L89.500 -34.900L95.900 -34.900L95.900 -37.900L101.500 -37.900L101.500 -34.900L107.900 -34.900L107.900 -37.900L113.500 -37.900L113.500 -34.900L119.900 -34.900L119.900 -37.900L125.500 -37.900L125.500 -34.900L131.900 -34.900L131.900 -37.900L137.500 -37.900L137.500 -34.900L143.900 -34.900L143.900 -37.900L149.500 -37.900L149.500 -34.900L161.400 -34.900L161.400 -38.300L158.400 -38.300L158.400 -43.900L161.400 -43.900L161.400 -50.300L158.400 -50.300L158.400 -55.900L161.400 -55.900L161.400 -62.300Z" fill="none" stroke="#ff0000" stroke-width="1.000"></path>
<path d="M238.135 -54.493L238.135 -49.993" fill="none" stroke="#777777" stroke-width="0.5"></path>
<path d="M238.135 -54.493L240.064 -54.493L240.707 -54.279L240.921 -54.064L241.135 -53.636L241.135 -53.207L240.921 -52.779L240.707 -52.564L240.064 -52.350L238.135 -52.350" fill="none" stroke="#777777" stroke-width="0.5"></path>
<path d="M239.635 -52.350L241.135 -49.993" fill="none" stroke="#777777" stroke-width="0.5"></path>
<path d="M242.421 -54.493L242.635 -54.279L242.849 -54.493L242.635 -54.707L242.421 -54.493Z" fill="none" stroke="#777777" stroke-width="0.5"></path>
<path d="M242.635 -52.993L242.635 -49.993" fill="none" stroke="#777777" stroke-width="0.5"></path>
<path d="M246.707 -52.993L246.707 -49.564L246.492 -48.921L246.278 -48.707L245.849 -48.493L245.207 -48.493L244.778 -48.707" fill="none" stroke="#777777" stroke-width="0.5"></path>
<path d="M246.707 -52.350L246.278 -52.779L245.849 -52.993L245.207 -52.993L244.778 -52.779L244.349 -52.350L244.135 -51.707L244.135 -51.279L244.349 -50.636L244.778 -50.207L245.207 -49.993L245.849 -49.993L246.278 -50.207L246.707 -50.636" fill="none" stroke="#777777" stroke-width="0.5"></path>
<path d="M248.421 -54.493L248.421 -49.993" fill="none" stroke="#777777" stroke-width="0.5"></path>
<path d="M248.421 -52.136L249.064 -52.779L249.492 -52.993L250.135 -52.993L250.564 -52.779L250.778 -52.136L250.778 -49.993" fill="none" stroke="#777777" stroke-width="0.5"></path>
<path d="M252.707 -54.493L252.707 -50.850L252.921 -50.207L253.349 -49.993L253.778 -49.993" fill="none" stroke="#777777" stroke-width="0.5"></path>
<path d="M252.064 -52.993L253.564 -52.993" fill="none" stroke="#777777" stroke-width="0.5"></path>
<path d="M325.799 -62.300L322.799 -62.300L322.799 -68.300L167.400 -68.300L167.400 -62.300L164.400 -62.300L164.400 -55.900L167.400 -55.900L167.400 -50.300L164.400 -50.300L164.400 -43.900L167.400 -43.900L167.400 -38.300L164.400 -38.300L164.400 -34.900L176.300 -34.900L176.300 -37.900L181.899 -37.900L181.899 -34.900L188.299 -34.900L188.299 -37.900L193.900 -37.900L193.900 -34.900L200.299 -34.900L200.299 -37.900L205.899 -37.900L205.899 -34.900L212.300 -34.900L212.300 -37.900L217.899 -37.900L217.899 -34.900L224.299 -34.900L224.299 -37.900L229.900 -37.900L229.900 -34.900L236.299 -34.900L236.299 -37.900L241.899 -37.900L241.899 -34.900L248.300 -34.900L248.300 -37.900L253.900 -37.900L253.900 -34.900L260.299 -34.900L260.299 -37.900L265.900 -37.900L265.900 -34.900L272.300 -34.900L272.300 -37.900L277.899 -37.900L277.899 -34.900L284.300 -34.900L284.300 -37.900L289.900 -37.900L289.900 -34.900L296.299 -34.900L296.299 -37.900L301.900 -37.900L301.900 -34.900L308.300 -34.900L308.300 -37.900L313.899 -37.900L313.899 -34.900L325.799 -34.900L325.799 -38.300L322.799 -38.300L322.799 -43.900L325.799 -43.900L325.799 -50.300L322.799 -50.300L322.799 -55.900L325.799 -55.900L325.799 -62.300Z" fill="none" stroke="#ff0000" stroke-width="1.000"></path>
<path d="M60.307 -155.750L60.307 -151.250" fill="none" stroke="#777777" stroke-width="0.5"></path>
<path d="M60.307 -155.750L62.235 -155.750L62.878 -155.536L63.092 -155.322L63.307 -154.893L63.307 -154.464L63.092 -154.036L62.878 -153.822L62.235 -153.607" fill="none" stroke="#777777" stroke-width="0.5"></path>
<path d="M60.307 -153.607L62.235 -153.607L62.878 -153.393L63.092 -153.179L63.307 -152.750L63.307 -152.107L63.092 -151.679L62.878 -151.464L62.235 -151.250L60.307 -151.250" fill="none" stroke="#777777" stroke-width="0.5"></path>
<path d="M65.664 -154.250L65.235 -154.036L64.807 -153.607L64.592 -152.964L64.592 -152.536L64.807 -151.893L65.235 -151.464L65.664 -151.250L66.307 -151.250L66.735 -151.464L67.164 -151.893L67.378 -152.536L67.378 -152.964L67.164 -153.607L66.735 -154.036L66.307 -154.250L65.664 -154.250Z" fill="none" stroke="#777777" stroke-width="0.5"></path>
<path d="M69.092 -155.750L69.092 -152.107L69.307 -151.464L69.735 -151.250L70.164 -151.250" fill="none" stroke="#777777" stroke-width="0.5"></path>
<path d="M68.450 -154.250L69.950 -154.250" fill="none" stroke="#777777" stroke-width="0.5"></path>
<path d="M71.664 -155.750L71.664 -152.107L71.878 -151.464L72.307 -151.250L72.735 -151.250" fill="none" stroke="#777777" stroke-width="0.5"></path>
<path d="M71.021 -154.250L72.521 -154.250" fill="none" stroke="#777777" stroke-width="0.5"></path>
<path d="M74.878 -154.250L74.450 -154.036L74.021 -153.607L73.807 -152.964L73.807 -152.536L74.021 -151.893L74.450 -151.464L74.878 -151.250L75.521 -151.250L75.950 -151.464L76.378 -151.893L76.592 -152.536L76.592 -152.964L76.378 -153.607L75.950 -154.036L75.521 -154.250L74.878 -154.250Z" fill="none" stroke="#777777" stroke-width="0.5"></path>
<path d="M78.092 -154.250L78.092 -151.250" fill="none" stroke="#777777" stroke-width="0.5"></path>
<path d="M78.092 -153.393L78.735 -154.036L79.164 -154.250L79.807 -154.250L80.235 -154.036L80.450 -153.393L80.450 -151.250" fill="none" stroke="#777777" stroke-width="0.5"></path>
<path d="M80.450 -153.393L81.092 -154.036L81.521 -154.250L82.164 -154.250L82.592 -154.036L82.807 -153.393L82.807 -151.250" fill="none" stroke="#777777" stroke-width="0.5"></path>
<path d="M55.499 -234.200L55.499 -231.200L49.899 -231.200L49.899 -234.200L43.499 -234.200L43.499 -231.200L37.899 -231.200L37.899 -234.200L31.499 -234.200L31.499 -231.200L25.900 -231.200L25.900 -234.200L19.500 -234.200L19.500 -231.200L13.900 -231.200L13.900 -234.200L7.500 -234.200L7.500 -231.200L2.999 -231.200L2.999 -222.700L0.000 -222.700L0.000 -216.300L2.999 -216.300L2.999 -210.700L0.000 -210.700L0.000 -204.300L2.999 -204.300L2.999 -198.700L0.000 -198.700L0.000 -192.300L2.999 -192.300L2.999 -186.700L0.000 -186.700L0.000 -180.300L2.999 -180.300L2.999 -174.700L0.000 -174.700L0.000 -168.300L2.999 -168.300L2.999 -162.701L0.000 -162.701L0.000 -156.301L2.999 -156.301L2.999 -150.700L0.000 -150.700L0.000 -144.300L2.999 -144.300L2.999 -138.700L0.000 -138.700L0.000 -132.300L2.999 -132.300L2.999 -126.700L0.000 -126.700L0.000 -120.300L2.999 -120.300L2.999 -114.700L0.000 -114.700L0.000 -108.300L2.999 -108.300L2.999 -102.700L0.000 -102.700L0.000 -96.300L2.999 -96.300L2.999 -90.700L0.000 -90.700L0.000 -84.300L2.999 -84.300L2.999 -75.800L7.500 -75.800L7.500 -72.800L13.900 -72.800L13.900 -75.800L19.500 -75.800L19.500 -72.800L25.900 -72.800L25.900 -75.800L31.499 -75.800L31.499 -72.800L37.899 -72.800L37.899 -75.800L43.499 -75.800L43.499 -72.800L49.899 -72.800L49.899 -75.800L55.499 -75.800L55.499 -72.800L61.899 -72.800L61.899 -75.800L67.499 -75.800L67.499 -72.800L73.900 -72.800L73.900 -75.800L79.500 -75.800L79.500 -72.800L85.900 -72.800L85.900 -75.800L91.500 -75.800L91.500 -72.800L97.900 -72.800L97.900 -75.800L103.500 -75.800L103.500 -72.800L109.900 -72.800L109.900 -75.800L115.500 -75.800L115.500 -72.800L121.900 -72.800L121.900 -75.800L127.500 -75.800L127.500 -72.800L133.900 -72.800L133.900 -75.800L138.400 -75.800L138.400 -84.300L141.399 -84.300L141.399 -90.700L138.400 -90.700L138.400 -96.300L141.399 -96.300L141.399 -102.700L138.400 -102.700L138.400 -108.300L141.399 -108.300L141.399 -114.700L138.400 -114.700L138.400 -120.300L141.399 -120.300L141.399 -126.700L138.400 -126.700L138.400 -132.300L141.399 -132.300L141.399 -138.700L138.400 -138.700L138.400 -144.300L141.399 -144.300L141.399 -150.700L138.400 -150.700L138.400 -156.301L141.399 -156.301L141.399 -162.701L138.400 -162.701L138.400 -168.300L141.399 -168.300L141.399 -174.700L138.400 -174.700L138.400 -180.300L141.399 -180.300L141.399 -186.700L138.400 -186.700L138.400 -192.300L141.399 -192.300L141.399 -198.700L138.400 -198.700L138.400 -204.300L141.399 -204.300L141.399 -210.700L138.400 -210.700L138.400 -216.300L141.399 -216.300L141.399 -222.700L138.400 -222.700L138.400 -231.200L133.900 -231.200L133.900 -234.200L127.500 -234.200L127.500 -231.200L121.900 -231.200L121.900 -234.200L115.500 -234.200L115.500 -231.200L109.900 -231.200L109.900 -234.200L103.500 -234.200L103.500 -231.200L97.900 -231.200L97.900 -234.200L91.500 -234.200L91.500 -231.200L85.900 -231.200L85.900 -234.200L79.500 -234.200L79.500 -231.200L73.900 -231.200L73.900 -234.200L67.499 -234.200L67.499 -231.200L61.899 -231.200L61.899 -234.200L55.499 -234.200Z" fill="none" stroke="#ff0000" stroke-width="1.000"></path></svg>